# AST/ASF file generated using VICON BodyLanguage
# -----------------------------------------------
:version 1.10
:name VICON
:units
  mass 1.0
  length 0.45
  angle deg
:documentation
   .ast/.asf automatically generated from VICON data using
   VICON BodyBuilder and BodyLanguage model FoxedUp or BRILLIANT.MOD
:root
   order TX TY TZ RX RY RZ
   axis XYZ
   position 0 0 0  
   orientation 0 0 0 
:bonedata
  begin
     id 1 
     name lhipjoint
     direction 0.690799 -0.707083 0.151096 
     length 2.54797 
     axis 0 0 0  XYZ
  end
  begin
     id 2 
     name lfemur
     direction 0.34202 -0.939693 0  
     length 7.21646  
     axis 0 0 20  XYZ
    dof rx ry rz
    limits (-160.0 20.0)
           (-70.0 70.0)
           (-60.0 70.0)
  end
  begin
     id 3 
     name ltibia
     direction 0.34202 -0.939693 0   
     length 8.16759   
     axis 0 0 20   XYZ
    dof rx
    limits (-10.0 170.0)
  end
  begin
     id 4 
     name lfoot
     direction 0.0487203 -0.133858 0.989802   
     length 1.93375   
     axis -90 7.62852e-016 20   XYZ
    dof rx rz
    limits (-45.0 90.0)
           (-70.0 20.0)
  end
  begin
     id 5 
     name ltoes
     direction 1.53453e-011 -4.21783e-011 1   
     length 0.979747   
     axis -90 7.62852e-016 20   XYZ
    dof rx
    limits (-90.0 20.0)
  end
  begin
     id 6 
     name rhipjoint
     direction -0.694693 -0.703425 0.150315   
     length 2.56122  
     axis 0 0 0  XYZ 
  end
  begin
     id 7 
     name rfemur
     direction -0.34202 -0.939693 0   
     length 7.36786   
     axis 0 0 -20   XYZ
    dof rx ry rz
    limits (-160.0 20.0)
           (-70.0 70.0)
           (-70.0 60.0)
  end
  begin
     id 8 
     name rtibia
     direction -0.34202 -0.939693 0   
     length 8.07288   
     axis 0 0 -20   XYZ
    dof rx
    limits (-10.0 170.0)
 end
 begin
     id 9 
     name rfoot
     direction -0.0428397 -0.117701 0.992125   
     length 1.88295  
     axis -90 -7.62852e-016 -20   XYZ
    dof rx rz
    limits (-45.0 90.0)
           (-20.0 70.0)
  end
  begin
     id 10 
     name rtoes
     direction -1.53456e-011 -4.2187e-011 1   
     length 0.955578   
     axis -90 -7.62852e-016 -20   XYZ
    dof rx
    limits (-90.0 20.0)
  end
  begin
     id 11 
     name lowerback
     direction 0.0288145 0.999398 -0.0193241   
     length 1.92149   
     axis 0 0 0   XYZ
    dof rx ry rz
    limits (-20.0 45.0)
           (-30.0 30.0)
           (-30.0 30.0)
  end
  begin
     id 12 
     name upperback
     direction 0.0233784 0.998099 0.0570278   
     length 1.90435   
     axis 0 0 0   XYZ
    dof rx ry rz
    limits (-20.0 45.0)
           (-30.0 30.0)
           (-30.0 30.0)
  end
  begin
     id 13 
     name thorax
     direction 0.0096694 0.997833 0.0650817   
     length 1.9111   
     axis 0 0 0   XYZ
    dof rx ry rz
    limits (-20.0 45.0)
           (-30.0 30.0)
           (-30.0 30.0)
  end
  begin
     id 14 
     name lowerneck
     direction 0.00516803 0.999916 0.0118722   
     length 1.74664   
     axis 0 0 0   XYZ
    dof rx ry rz
    limits (-20.0 45.0)
           (-30.0 30.0)
           (-30.0 30.0)
  end
  begin
     id 15 
     name upperneck
     direction -0.0510851 0.996117 -0.071696   
     length 1.68498   
     axis 0 0 0   XYZ
    dof rx ry rz
    limits (-20.0 45.0)
           (-30.0 30.0)
           (-30.0 30.0)
  end
  begin
     id 16
     name head
     direction -0.019188 0.999436 -0.0275702  
     length 1.83483  
     axis 0 0 0   XYZ
    dof rx ry rz
    limits (-20.0 45.0)
           (-30.0 30.0)
           (-30.0 30.0)
  end
  begin
     id 17 
     name lclavicle
     direction 0.967006 0.248456 -0.0562957  
     length 3.39395  
     axis 0 0 0   XYZ
    dof ry rz
    limits (-20.0 10.0)
           (0.0 20.0)
  end
  begin
     id 18 
     name lhumerus
     direction 1 -4.48962e-011 -5.62711e-019   
     length 5.24318   
     axis 180 -30 -90   XYZ
    dof rx ry rz
    limits (-60.0 90.0)
           (-90.0 90.0)
           (-90.0 90.0)
  end
  begin
     id 19
     name lradius
     direction 1 -4.48966e-011 7.90625e-027   
     length 2.98999   
     axis 180 -30 -90   XYZ
    dof rx
    limits (-10.0 170.0)
  end
  begin
     id 20
     name lwrist
     direction 1 -4.48959e-011 1.61068e-026   
     length 1.49499   
     axis -9.31229e-015 90 90   XYZ
    dof ry
    limits (-180.0 0.0)
 end
  begin
     id 21 
     name lhand
     direction 1 -4.49017e-011 3.22136e-026   
     length 0.726745   
     axis -2.0555e-014 90 90   XYZ
    dof rx rz
    limits (-90.0 90.0)
           (-45.0 45.0)
  end
  begin
     id 22 
     name lfingers
     direction 1 -4.4898e-011 6.44272e-026   
     length 0.58592   
     axis -4.11101e-014 90 90   XYZ
    dof rx
    limits (0.0 90.0)
  end
  begin
     id 23
     name lthumb
     direction 0.707107 -6.34922e-011 0.707107   
     length 0.841268   
     axis -90 45 2.85299e-015   XYZ
    dof rx rz
    limits (-45.0 45.0)
           (-45.0 45.0)
  end
  begin
     id 24 
     name rclavicle
     direction -0.972232 0.230238 0.0419005   
     length 3.40416  
     axis 0 0 0   XYZ 
    dof ry rz
    limits (-10.0 20.0)
           (-20.0 0.0)
  end
  begin
     id 25 
     name rhumerus
     direction -1 -4.48976e-011 2.48487e-027  
     length 5.37045   
     axis 180 30 90   XYZ
    dof rx ry rz
    limits (-90.0 60.0)
           (-90.0 90.0)
           (-90.0 90.0)
  end
  begin
     id 26 
     name rradius
     direction -1 -4.48942e-011 7.87951e-027   
     length 2.92792   
     axis 180 30 90   XYZ
    dof rx
    limits (-10.0 170.0)
  end
  begin
     id 27 
     name rwrist
     direction -1 -4.48969e-011 1.61068e-026   
     length 1.46396   
     axis -9.31229e-015 -90 -90   XYZ
    dof ry
    limits (-180.0 0.0)
  end
  begin
     id 28
     name rhand
     direction -1 -4.49043e-011 3.22136e-026   
     length 0.784497   
     axis -2.0555e-014 -90 -90   XYZ
    dof rx rz
    limits (-90.0 90.0)
           (-45.0 45.0)
  end
  begin
     id 29
     name rfingers
     direction -1 -4.48823e-011 6.44272e-026   
     length 0.632482   
     axis -4.11101e-014 -90 -90   XYZ
    dof rx
    limits (0.0 90.0)
  end
  begin
     id 30
     name rthumb
     direction -0.707107 -6.34923e-011 0.707107   
     length 0.908121   
     axis -90 -45 -2.85299e-015   XYZ
    dof rx rz
    limits (-45.0 45.0)
           (-45.0 45.0)
  end
:hierarchy
  begin
    root lhipjoint rhipjoint lowerback
    lhipjoint lfemur
    lfemur ltibia
    ltibia lfoot
    lfoot ltoes
    rhipjoint rfemur
    rfemur rtibia
    rtibia rfoot
    rfoot rtoes
    lowerback upperback
    upperback thorax
    thorax lowerneck lclavicle rclavicle
    lowerneck upperneck
    upperneck head
    lclavicle lhumerus
    lhumerus lradius
    lradius lwrist
    lwrist lhand lthumb
    lhand lfingers
    rclavicle rhumerus
    rhumerus rradius
    rradius rwrist
    rwrist rhand rthumb
    rhand rfingers
  end

#!OML:ASF E:\Style6\Style6.ASF
:FULLY-SPECIFIED
:DEGREES
1216
root -0.083808 15.9893 -1.48897 23.5477 14.7098 4.7316
lowerback 28.7935 -1.1703 6.72866
upperback 7.14156 1.06365 5.20578
thorax -7.8271 0.469706 1.58624
lowerneck -18.9112 -1.19253 -0.237988
upperneck 14.2451 0.673621 -11.9916
head 7.58908 -0.849966 -3.86971
rclavicle 4.6118e-014 2.22639e-014
rhumerus 11.7294 -22.2462 -23.2907
rradius 78.0581
rwrist -3.21893
rhand 2.31153 8.85626
rfingers 7.12502
rthumb 27.8025 -19.1072
lclavicle 4.6118e-014 2.22639e-014
lhumerus -11.7106 -19.6108 39.8057
lradius 87.8848
lwrist 39.6761
lhand -4.45548 21.7715
lfingers 7.12502
lthumb 21.3165 50.6191
rfemur -67.0445 -26.3624 27.7665
rtibia 65.9429
rfoot -16.8341 2.85404
rtoes -4.87639
lfemur -64.06 5.546 -25.8101
ltibia 59.7226
lfoot -11.6716 -18.3003
ltoes 2.45957
1217
root -0.0808293 15.9825 -1.49167 23.6195 14.7531 4.86378
lowerback 28.8311 -1.18061 6.73451
upperback 7.1044 1.06097 5.21532
thorax -7.88784 0.467026 1.59577
lowerneck -18.9019 -1.24017 -0.232904
upperneck 14.277 0.619131 -12.0413
head 7.59486 -0.881131 -3.89445
rclavicle 3.81667e-014 -1.59028e-014
rhumerus 12.0482 -22.812 -23.5543
rradius 77.4014
rwrist -2.69349
rhand 1.65021 8.85003
rfingers 7.12502
rthumb 27.17 -19.2139
lclavicle 3.81667e-014 -1.59028e-014
lhumerus -12.0449 -19.3225 39.5937
lradius 87.7952
lwrist 39.553
lhand -4.45355 21.8236
lfingers 7.12502
lthumb 21.3184 50.6711
rfemur -67.1728 -26.4694 27.6696
rtibia 66.0566
rfoot -16.8455 2.86715
rtoes -4.7306
lfemur -64.1573 5.50695 -25.979
ltibia 59.7775
lfoot -11.5396 -18.4703
ltoes 3.17782
1218
root -0.0769591 15.977 -1.49429 23.6799 14.7568 4.99136
lowerback 28.8768 -1.18956 6.72546
upperback 7.08978 1.05412 5.21967
thorax -7.92717 0.463211 1.60912
lowerneck -18.9125 -1.26351 -0.23176
upperneck 14.2495 0.602687 -12.1405
head 7.58787 -0.897461 -3.92956
rclavicle -9.54166e-015 -7.95139e-015
rhumerus 12.4483 -23.4006 -23.8688
rradius 76.7195
rwrist -2.0987
rhand 1.08044 8.97163
rfingers 7.12502
rthumb 26.6248 -19.1763
lclavicle -9.54166e-015 -7.95139e-015
lhumerus -12.4114 -18.9674 39.4093
lradius 87.7404
lwrist 39.4347
lhand -4.39046 21.6857
lfingers 7.12502
lthumb 21.379 50.5262
rfemur -67.3019 -26.5664 27.577
rtibia 66.1749
rfoot -16.9266 2.85835
rtoes -5.08334
lfemur -64.2352 5.51943 -26.1706
ltibia 59.8303
lfoot -11.3834 -18.6143
ltoes 3.97995
1219
root -0.0749973 15.968 -1.49904 23.6939 14.8268 5.01995
lowerback 28.9877 -1.2176 6.8098
upperback 7.0738 1.06133 5.26167
thorax -7.99799 0.464205 1.60793
lowerneck -18.9455 -1.28323 -0.207805
upperneck 14.2373 0.593217 -12.2706
head 7.59053 -0.913369 -3.97904
rclavicle 1.90833e-014 9.54166e-015
rhumerus 12.8796 -23.9808 -24.1905
rradius 76.0013
rwrist -1.47937
rhand 0.463713 9.01098
rfingers 7.12502
rthumb 26.0345 -19.2252
lclavicle 1.90833e-014 9.54166e-015
lhumerus -12.8911 -18.5976 39.2546
lradius 87.8223
lwrist 39.4135
lhand -4.31361 21.4503
lfingers 7.12502
lthumb 21.4528 50.2824
rfemur -67.4192 -26.6645 27.6065
rtibia 66.3047
rfoot -16.9926 2.79666
rtoes -5.64324
lfemur -64.3177 5.52238 -26.2303
ltibia 59.903
lfoot -11.2379 -18.7618
ltoes 4.53912
1220
root -0.0750225 15.9577 -1.50612 23.7526 14.935 5.14467
lowerback 29.1357 -1.24856 6.81476
upperback 7.02315 1.04926 5.29805
thorax -8.12871 0.455927 1.65368
lowerneck -19.0114 -1.30475 -0.175386
upperneck 14.2841 0.584882 -12.3904
head 7.6183 -0.9306 -4.02876
rclavicle 1.11319e-014 8.26944e-014
rhumerus 13.271 -24.5038 -24.4929
rradius 75.2714
rwrist -0.91277
rhand -0.195867 8.86231
rfingers 7.12502
rthumb 25.4028 -19.4653
lclavicle 1.11319e-014 8.26944e-014
lhumerus -13.38 -18.2635 39.1249
lradius 87.9268
lwrist 39.3861
lhand -4.34615 21.4078
lfingers 7.12502
lthumb 21.4215 50.2435
rfemur -67.5832 -26.8146 27.5515
rtibia 66.4504
rfoot -16.9909 2.8871
rtoes -4.757
lfemur -64.4166 5.44774 -26.3774
ltibia 59.9767
lfoot -11.2626 -18.8526
ltoes 4.79965
1221
root -0.0720053 15.9508 -1.51182 23.7571 15.0491 5.18216
lowerback 29.2662 -1.27298 6.93671
upperback 6.99281 1.07546 5.33466
thorax -8.22412 0.464515 1.61899
lowerneck -18.9915 -1.35288 -0.148839
upperneck 14.2599 0.521101 -12.4612
head 7.60301 -0.964472 -4.06348
rclavicle 4.45278e-014 4.29375e-014
rhumerus 13.617 -25.0571 -24.8237
rradius 74.5125
rwrist -0.267099
rhand -0.778533 9.04036
rfingers 7.12502
rthumb 24.8445 -19.3654
lclavicle 4.45278e-014 4.29375e-014
lhumerus -13.705 -17.9411 38.9732
lradius 87.902
lwrist 39.3538
lhand -4.31839 21.3613
lfingers 7.12502
lthumb 21.4482 50.194
rfemur -67.6811 -26.9767 27.5747
rtibia 66.5925
rfoot -17.0617 2.90749
rtoes -4.79047
lfemur -64.4833 5.39731 -26.426
ltibia 60.0701
lfoot -11.237 -18.969
ltoes 5.14643
1222
root -0.0686701 15.94 -1.51642 23.7892 15.1435 5.17117
lowerback 29.2952 -1.27395 7.07831
upperback 6.9864 1.12501 5.38479
thorax -8.24212 0.485396 1.57814
lowerneck -18.8723 -1.43064 -0.143842
upperneck 14.0898 0.397791 -12.5085
head 7.51794 -1.01699 -4.08702
rclavicle 9.54166e-015 -2.22639e-014
rhumerus 14.0032 -25.6614 -25.1876
rradius 73.7348
rwrist 0.450542
rhand -1.13242 9.50379
rfingers 7.12502
rthumb 24.5053 -18.9484
lclavicle 9.54166e-015 -2.22639e-014
lhumerus -14.0262 -17.61 38.8314
lradius 87.9082
lwrist 39.3926
lhand -4.26354 21.2057
lfingers 7.12502
lthumb 21.5009 50.0324
rfemur -67.8421 -27.1142 27.6771
rtibia 66.7506
rfoot -17.133 2.98447
rtoes -4.47931
lfemur -64.6306 5.3725 -26.4431
ltibia 60.1903
lfoot -11.2293 -19.0141
ltoes 5.02541
